<svg width="12" height="19" viewBox="0 0 12 19" fill="none" xmlns="http://www.w3.org/2000/svg"><path d="M11.548.004L8.67 0C5.436 0 3.347 1.835 3.347 4.676v2.156H.453c-.25 0-.453.173-.453.387v3.124c0 .214.203.388.453.388h2.894v7.882c0 .214.202.387.452.387h3.776c.25 0 .452-.174.452-.387V10.73h3.384c.25 0 .453-.174.453-.388l.001-3.124a.362.362 0 0 0-.132-.274.494.494 0 0 0-.32-.113H8.026V5.004c0-.878.245-1.324 1.582-1.324h1.939c.25 0 .452-.174.452-.388v-2.9c0-.214-.202-.388-.452-.388z" fill="#C4AA73"/></svg>