<svg width="45" height="44" viewBox="0 0 45 44" fill="none" xmlns="http://www.w3.org/2000/svg"><path d="M44.604 8.741L30.956 22l13.648 13.258A3.753 3.753 0 0 0 45 33.601V10.398c0-.595-.15-1.152-.396-1.657zM41.045 6.531H3.955c-.609 0-1.179.147-1.694.388l17.443 16.97c1.542 1.507 4.05 1.507 5.592 0L42.74 6.918a3.983 3.983 0 0 0-1.694-.388zM.396 8.741A3.753 3.753 0 0 0 0 10.398v23.203c0 .596.15 1.153.396 1.657L14.044 22 .396 8.74z" fill="#C4AA73"/><path d="M29.092 23.823l-1.931 1.888c-2.57 2.513-6.752 2.513-9.322 0l-1.93-1.888L2.26 37.081a3.982 3.982 0 0 0 1.694.388h37.09c.609 0 1.179-.146 1.694-.388L29.092 23.823z" fill="#C4AA73"/></svg>